<svg xmlns="http://www.w3.org/2000/svg" xmlns:xlink="http://www.w3.org/1999/xlink" width="300" height="44.071" viewBox="0 0 300 44.071">
  <defs>
    <clipPath id="clip-path">
      <rect id="사각형_1" data-name="사각형 1" width="300" height="44.071" transform="translate(0 0)" fill="none"/>
    </clipPath>
  </defs>
  <g id="그룹_2" data-name="그룹 2" transform="translate(0 0)">
    <g id="그룹_1" data-name="그룹 1" transform="translate(0 0)" clip-path="url(#clip-path)">
      <path id="패스_1" data-name="패스 1" d="M98.766,29.36c-.325,0-.392.063-.521.392l-3.073,7.454a10.066,10.066,0,0,0-.85,3.4c0,.982.522,1.57,2.286,1.57h.851c.72,0,.851.261.851.588,0,.457-.325.589-.918.589-1.895,0-4.575-.2-6.407-.2-.589,0-3.66.2-6.669.2-.716,0-1.045-.133-1.045-.589,0-.328.2-.588.654-.588.524,0,1.178-.065,1.7-.065,2.616-.393,3.595-2.094,4.771-4.9L105.437,2.224C106.092.655,106.55,0,107.136,0c.851,0,1.113.524,1.7,1.766,1.374,3.074,10.986,25.827,14.647,34.262,2.226,5.035,3.86,5.755,4.905,5.952a14,14,0,0,0,2.158.194c.524,0,.784.2.784.588,0,.457-.324.589-2.483.589-2.028,0-6.21,0-11.052-.133-1.046-.063-1.7-.063-1.7-.457,0-.328.13-.522.717-.588a.873.873,0,0,0,.525-1.242l-4.447-11.18a.547.547,0,0,0-.59-.392Zm12.3-3.074c.258,0,.325-.13.258-.326l-5.428-14.122c-.062-.2-.129-.524-.259-.524-.2,0-.262.327-.325.524L99.749,25.9c-.13.261,0,.39.2.39Z" transform="translate(-19.059 0)" fill="#0069a6"/>
      <path id="패스_2" data-name="패스 2" d="M145.918,17.781c0-8.434,0-10-.068-11.768-.128-1.9-.652-2.487-2.483-3.009a10.583,10.583,0,0,0-2.289-.2c-.588,0-.982-.2-.982-.587s.46-.524,1.308-.524c3.009,0,6.669.13,8.307.13,1.764,0,5.884-.13,9.35-.13,7.189,0,16.868,0,23.144,6.342a19.464,19.464,0,0,1,5.429,14.123,21.552,21.552,0,0,1-6.276,15.5c-2.615,2.616-8.7,6.538-19.29,6.538-2.09,0-4.577-.2-6.865-.328-2.287-.2-4.382-.325-5.819-.325-.654,0-1.9.063-3.27.063-1.373.067-2.812.133-3.988.133-.72,0-1.109-.2-1.109-.588,0-.26.193-.588.912-.588a8.5,8.5,0,0,0,2.027-.2c1.177-.263,1.5-1.31,1.7-2.941.262-2.356.262-6.737.262-11.837Zm7.714,6.147c0,5.883.066,10.136.132,11.246.065,1.374.2,3.334.653,3.923.718,1.045,3.01,2.223,7.518,2.223,5.232,0,9.09-.917,12.556-3.792,3.728-3.072,4.9-8.043,4.9-13.8,0-7.062-2.814-11.638-5.364-13.863-5.295-4.708-11.571-5.3-16.085-5.3a12.178,12.178,0,0,0-3.529.393.977.977,0,0,0-.719,1.113c-.066,1.895-.066,6.472-.066,10.854Z" transform="translate(-32.065 -0.389)" fill="#0069a6"/>
      <path id="패스_3" data-name="패스 3" d="M178.939,38.212c-5.691-4.774-7.192-11.05-7.192-16.412A20.676,20.676,0,0,1,178.48,6.564C182.665,2.9,188.156.679,196.721.679a58.843,58.843,0,0,1,8.371.589c2.158.327,4.053.719,5.753.915.656.066.85.328.85.653,0,.457-.13,1.112-.261,3.074-.129,1.83-.129,4.9-.193,6.014-.067.788-.264,1.375-.786,1.375-.459,0-.59-.457-.59-1.177a7.848,7.848,0,0,0-2.222-5.165c-1.965-1.9-5.819-3.27-11.117-3.27-5.034,0-8.238.915-10.854,3.138-4.248,3.661-5.3,9.024-5.3,14.451,0,13.207,10.2,19.485,17.92,19.485,5.1,0,7.909-.393,10.2-2.942a9.04,9.04,0,0,0,1.961-3.727c.129-.85.259-1.11.719-1.11.392,0,.652.521.652.979a49.039,49.039,0,0,1-1.242,7.39,1.944,1.944,0,0,1-1.506,1.635c-2.285.915-6.668,1.242-10.394,1.242-7.844,0-14.516-1.636-19.745-6.016" transform="translate(-39.309 -0.156)" fill="#8c9ca5"/>
      <path id="패스_4" data-name="패스 4" d="M184.234,11.718a12.061,12.061,0,0,0-1.208-1.224,19.46,19.46,0,0,0-3.448-2.449l-.188-1,3.177-2.518,2.037-.1a19.76,19.76,0,0,1,4.225,2.242l-.179,1.2-3.241,3.674Z" transform="translate(-41.058 -1.014)" fill="#0069a6"/>
      <path id="패스_5" data-name="패스 5" d="M228.547,22.453c0-9.482,6.671-21.774,24.134-21.774,14.512,0,23.536,8.042,23.536,20.793s-9.287,22.756-24.128,22.756c-16.742,0-23.542-11.9-23.542-21.774M267.652,23.5c0-12.292-7.39-19.879-16.673-19.879-6.406,0-13.93,3.4-13.93,17.131,0,11.442,6.542,20.466,17.392,20.466,4.057,0,13.211-1.9,13.211-17.719" transform="translate(-52.31 -0.156)" fill="#8c9ca5"/>
      <path id="패스_6" data-name="패스 6" d="M299.865,17.781c0-8.434,0-10-.066-11.768-.133-1.9-.658-2.487-2.488-3.009a10.526,10.526,0,0,0-2.285-.2c-.591,0-.982-.2-.982-.587s.458-.524,1.306-.524c3.013,0,6.672.13,7.848.13,1.963,0,7.192-.13,8.96-.13,3.661,0,7.845.326,10.917,2.354a9.694,9.694,0,0,1,4.052,7.65c0,4.12-2.351,7.781-7.975,12.292,5.1,6.279,9.156,11.312,12.618,14.779,3.206,3.2,5.232,3.465,6.15,3.662a5.4,5.4,0,0,0,1.374.13.671.671,0,0,1,.718.588c0,.456-.391.588-1.116.588h-5.488c-3.2,0-4.776-.327-6.281-1.11-2.482-1.243-4.638-3.859-7.841-8.173-2.29-3.01-4.711-6.737-5.431-7.587a1.326,1.326,0,0,0-1.044-.392l-5.167-.13a.413.413,0,0,0-.458.458v.785c0,5.165.065,9.481.328,11.837.2,1.631.46,2.678,2.225,2.941a21.828,21.828,0,0,0,2.812.2.668.668,0,0,1,.716.588c0,.392-.456.588-1.178.588-3.333,0-8.107-.2-8.957-.2-1.11,0-4.77.2-7.064.2-.719,0-1.11-.2-1.11-.588,0-.26.2-.588.916-.588a8.5,8.5,0,0,0,2.028-.2c1.177-.263,1.5-1.31,1.7-2.941.261-2.356.261-6.737.261-11.837Zm7.322,4.317c0,.588.132.783.525.98a15.794,15.794,0,0,0,4.378.523c2.289,0,3.072-.2,4.058-.915,1.763-1.243,3.725-3.661,3.725-8.238,0-7.847-5.362-9.875-8.762-9.875a20.822,20.822,0,0,0-3.4.2c-.393.129-.525.325-.525.785Z" transform="translate(-67.301 -0.389)" fill="#8c9ca5"/>
      <path id="패스_7" data-name="패스 7" d="M352.379,17.782c0-8.435,0-10-.065-11.769-.129-1.9-.651-2.486-2.483-3.008a10.605,10.605,0,0,0-2.288-.2c-.592,0-.982-.2-.982-.588s.458-.523,1.307-.523c3.008,0,6.672.13,8.307.13,2.349,0,6.931-.13,9.542-.13,7.193,0,9.807,2.353,10.725,3.138a9.652,9.652,0,0,1,2.878,6.669c0,7.847-6.278,13.47-14.452,13.47a14.7,14.7,0,0,1-1.7-.066.66.66,0,0,1-.721-.588c0-.456.657-.719,1.9-.719,3.2,0,7.717-3.335,7.717-9.023a10.359,10.359,0,0,0-3.4-8.24,8.655,8.655,0,0,0-5.754-2.091,9.04,9.04,0,0,0-2.486.261c-.325.133-.456.458-.456,1.047V27.591c0,5.1,0,9.481.265,11.9.19,1.568.518,2.616,2.218,2.879a22.32,22.32,0,0,0,2.94.2c.654,0,.919.328.919.588,0,.393-.458.589-1.046.589-3.861,0-7.916-.2-9.419-.2-1.3,0-4.967.2-7.257.2-.718,0-1.107-.2-1.107-.589,0-.26.193-.588.912-.588a8.476,8.476,0,0,0,2.026-.2c1.179-.263,1.5-1.31,1.7-2.942.261-2.355.261-6.737.261-11.836Z" transform="translate(-79.321 -0.389)" fill="#8c9ca5"/>
      <path id="패스_8" data-name="패스 8" d="M13.141,27.9c0,7.127,0,10.658,1.242,11.7.982.85,3.7,1.178,8.145,1.178,3.076,0,5.295-.066,6.735-1.569A6.647,6.647,0,0,0,30.7,35.878c.067-.521.2-.85.656-.85.393,0,.523.589.523,1.242a42.413,42.413,0,0,1-.849,6.407c-.392,1.244-.652,1.507-3.663,1.507-4.121,0-7.945-.066-10.823-.2-2.876-.066-5.3-.13-7.65-.13-.652,0-1.9.064-3.268.064-1.372.066-2.813.13-3.987.13-.721,0-1.113-.194-1.113-.588,0-.262.2-.588.917-.588a8.349,8.349,0,0,0,2.026-.2c1.175-.26,1.5-1.3,1.7-2.939.261-2.355.261-6.737.261-11.837V18.094c0-8.436,0-10-.065-11.771-.131-1.9-.655-2.485-2.484-3.007a7.581,7.581,0,0,0-1.9-.2Q0,3.119,0,2.53c0-.392.393-.522,1.245-.522,2.679,0,6.341.13,7.909.13,1.372,0,6.083-.13,8.307-.13.848,0,1.242.13,1.242.522s-.328.589-1.049.589a12.561,12.561,0,0,0-2.221.2c-1.571.261-2.027,1.046-2.159,3.007-.132,1.767-.132,3.335-.132,11.771Z" transform="translate(0 -0.46)" fill="#0069a6"/>
      <path id="패스_9" data-name="패스 9" d="M48.889,17.726c0-8.449,0-10.005-.121-11.786-.123-1.888-.612-2.778-2.626-3.168a13.712,13.712,0,0,0-2.38-.166c-.673,0-1.037-.113-1.037-.5s.428-.5,1.344-.5c1.646,0,3.416.056,4.94.056,1.592.054,2.994.111,3.849.111,1.952,0,14.1,0,15.26-.057a26.163,26.163,0,0,0,2.623-.332,6.216,6.216,0,0,1,.977-.224c.3,0,.366.224.366.5,0,.389-.3,1.218-.488,3.778-.062.555-.184,3-.307,3.669-.06.28-.182.611-.61.611s-.548-.278-.548-.782a5.5,5.5,0,0,0-.366-2c-.429-1-1.038-1.667-4.088-2-1.041-.111-7.451-.221-8.671-.221-.3,0-.423.167-.423.556v13.9c0,.386.059.611.423.611,1.346,0,8.364,0,9.765-.113,1.467-.112,2.384-.278,2.933-.831.426-.446.669-.724.975-.724a.388.388,0,0,1,.428.446c0,.335-.243,1.223-.489,4.058-.059,1.111-.244,3.335-.244,3.723,0,.444,0,1.058-.548,1.058-.428,0-.55-.221-.55-.5a13.066,13.066,0,0,0-.243-2c-.305-1.112-1.161-1.945-3.42-2.169-1.157-.11-7.2-.167-8.667-.167-.3,0-.363.223-.363.556V27.51c0,1.889-.063,6.842,0,8.452.12,3.837,1.094,4.669,7.324,4.669a16.986,16.986,0,0,0,5.735-.663c1.588-.668,2.32-1.837,2.75-4.117.12-.611.242-.834.669-.834.489,0,.489.443.489,1a42.026,42.026,0,0,1-.794,6.334C72.327,43.8,71.779,43.8,69.46,43.8c-4.579,0-7.936-.109-10.561-.167-2.626-.112-4.519-.165-6.352-.165-.667,0-2.01,0-3.476.053-1.4,0-2.99.112-4.212.112-.791,0-1.219-.165-1.219-.557,0-.276.244-.443.975-.443a10.954,10.954,0,0,0,2.2-.222c1.222-.223,1.527-1.448,1.77-3.058.307-2.335.307-6.729.307-11.841Z" transform="translate(-9.779 -0.266)" fill="#0069a6"/>
    </g>
  </g>
</svg>
